HIERARCHY
ROOT Root
{
  OFFSET 0.0 0.0 0.0
  CHANNELS 6 Xposition Yposition Zposition Zrotation Yrotation Xrotation
  JOINT Hips
  {
    OFFSET 0.0 100.0 0.0
    CHANNELS 6 Xposition Yposition Zposition Zrotation Yrotation Xrotation
    JOINT Spine1
    {
      OFFSET -0.013727 5.003763 -0.053727
      CHANNELS 3 Zrotation Yrotation Xrotation
      JOINT Spine2
      {
        OFFSET -0.0 7.125301 -0.029825
        CHANNELS 3 Zrotation Yrotation Xrotation
        JOINT Chest
        {
          OFFSET -1e-06 7.550063 -0.815971
          CHANNELS 3 Zrotation Yrotation Xrotation
          JOINT Neck1
          {
            OFFSET -0.181677 26.311295 -0.553348
            CHANNELS 3 Zrotation Yrotation Xrotation
            JOINT Neck2
            {
              OFFSET -3e-06 7.709397 2.302585
              CHANNELS 3 Zrotation Yrotation Xrotation
              JOINT Head
              {
                OFFSET -5e-06 6.128916 1.953709
                CHANNELS 3 Zrotation Yrotation Xrotation
                JOINT HeadEnd
                {
                  OFFSET 0.003598 16.065403 -1.835379
                  CHANNELS 3 Zrotation Yrotation Xrotation
                }
                JOINT Jaw
                {
                  OFFSET 0.002637 0.475592 3.094941
                  CHANNELS 3 Zrotation Yrotation Xrotation
                }
                JOINT LeftEye
                {
                  OFFSET 3.206381 5.380205 7.586883
                  CHANNELS 3 Zrotation Yrotation Xrotation
                }
                JOINT RightEye
                {
                  OFFSET -3.22244 5.361869 7.558234
                  CHANNELS 3 Zrotation Yrotation Xrotation
                }
              }
            }
          }
          JOINT LeftShoulder
          {
            OFFSET 1.621652 23.237164 5.113413
            CHANNELS 3 Zrotation Yrotation Xrotation
            JOINT LeftArm
            {
              OFFSET 14.919846 2e-06 -5.502326
              CHANNELS 3 Zrotation Yrotation Xrotation
              JOINT LeftForeArm
              {
                OFFSET 28.739307 0.0 -0.002588
                CHANNELS 3 Zrotation Yrotation Xrotation
                JOINT LeftHand
                {
                  OFFSET 27.093981 -1e-06 0.002609
                  CHANNELS 3 Zrotation Yrotation Xrotation
                  JOINT LeftHandThumb1
                  {
                    OFFSET 2.276482 -1.392045 3.191413
                    CHANNELS 3 Zrotation Yrotation Xrotation
                    JOINT LeftHandThumb2
                    {
                      OFFSET 4.012836 -1.828127 1.641654
                      CHANNELS 3 Zrotation Yrotation Xrotation
                      JOINT LeftHandThumb3
                      {
                        OFFSET 2.798515 0.0 -3e-06
                        CHANNELS 3 Zrotation Yrotation Xrotation
                        JOINT LeftHandThumbEnd
                        {
                          OFFSET 3.180793 -4e-06 4e-06
                          CHANNELS 3 Zrotation Yrotation Xrotation
                        }
                      }
                    }
                  }
                  JOINT LeftHandIndex1
                  {
                    OFFSET 3.247555 -0.531998 2.296169
                    CHANNELS 3 Zrotation Yrotation Xrotation
                    JOINT LeftHandIndex2
                    {
                      OFFSET 6.364578 0.01206 0.1786
                      CHANNELS 3 Zrotation Yrotation Xrotation
                      JOINT LeftHandIndex3
                      {
                        OFFSET 3.662364 0.0 0.0
                        CHANNELS 3 Zrotation Yrotation Xrotation
                        JOINT LeftHandIndex4
                        {
                          OFFSET 2.329242 4e-06 4e-06
                          CHANNELS 3 Zrotation Yrotation Xrotation
                          JOINT LeftHandIndexEnd
                          {
                            OFFSET 2.759615 -0.180537 -0.113024
                            CHANNELS 3 Zrotation Yrotation Xrotation
                          }
                        }
                      }
                    }
                  }
                  JOINT LeftHandMiddle1
                  {
                    OFFSET 3.163495 0.240981 1.000332
                    CHANNELS 3 Zrotation Yrotation Xrotation
                    JOINT LeftHandMiddle2
                    {
                      OFFSET 6.19078 -0.259278 -1.002548
                      CHANNELS 3 Zrotation Yrotation Xrotation
                      JOINT LeftHandMiddle3
                      {
                        OFFSET 4.35652 -4e-06 -1e-06
                        CHANNELS 3 Zrotation Yrotation Xrotation
                        JOINT LeftHandMiddle4
                        {
                          OFFSET 2.996877 -8e-06 0.0
                          CHANNELS 3 Zrotation Yrotation Xrotation
                          JOINT LeftHandMiddleEnd
                          {
                            OFFSET 2.304287 -0.294569 -0.031741
                            CHANNELS 3 Zrotation Yrotation Xrotation
                          }
                        }
                      }
                    }
                  }
                  JOINT LeftHandRing1
                  {
                    OFFSET 2.882643 -0.053652 -0.322543
                    CHANNELS 3 Zrotation Yrotation Xrotation
                    JOINT LeftHandRing2
                    {
                      OFFSET 5.854541 -0.486202 -1.373841
                      CHANNELS 3 Zrotation Yrotation Xrotation
                      JOINT LeftHandRing3
                      {
                        OFFSET 4.350578 0.0 3e-06
                        CHANNELS 3 Zrotation Yrotation Xrotation
                        JOINT LeftHandRing4
                        {
                          OFFSET 2.651321 7e-06 2e-06
                          CHANNELS 3 Zrotation Yrotation Xrotation
                          JOINT LeftHandRingEnd
                          {
                            OFFSET 1.936105 0.077687 -7.1e-05
                            CHANNELS 3 Zrotation Yrotation Xrotation
                          }
                        }
                      }
                    }
                  }
                  JOINT LeftHandPinky1
                  {
                    OFFSET 2.8655 -0.310005 -1.600378
                    CHANNELS 3 Zrotation Yrotation Xrotation
                    JOINT LeftHandPinky2
                    {
                      OFFSET 5.087849 -1.331141 -1.77123
                      CHANNELS 3 Zrotation Yrotation Xrotation
                      JOINT LeftHandPinky3
                      {
                        OFFSET 3.070974 4e-06 0.0
                        CHANNELS 3 Zrotation Yrotation Xrotation
                        JOINT LeftHandPinky4
                        {
                          OFFSET 1.549672 0.0 1e-06
                          CHANNELS 3 Zrotation Yrotation Xrotation
                          JOINT LeftHandPinkyEnd
                          {
                            OFFSET 1.944893 -0.157802 0.057219
                            CHANNELS 3 Zrotation Yrotation Xrotation
                          }
                        }
                      }
                    }
                  }
                }
              }
            }
          }
          JOINT RightShoulder
          {
            OFFSET -1.380118 23.180309 5.214158
            CHANNELS 3 Zrotation Yrotation Xrotation
            JOINT RightArm
            {
              OFFSET -15.037196 1.2e-05 -5.545604
              CHANNELS 3 Zrotation Yrotation Xrotation
              JOINT RightForeArm
              {
                OFFSET -28.736639 2e-06 -0.002597
                CHANNELS 3 Zrotation Yrotation Xrotation
                JOINT RightHand
                {
                  OFFSET -27.133619 -0.0 0.002613
                  CHANNELS 3 Zrotation Yrotation Xrotation
                  JOINT RightHandThumb1
                  {
                    OFFSET -2.274032 -1.383988 3.163127
                    CHANNELS 3 Zrotation Yrotation Xrotation
                    JOINT RightHandThumb2
                    {
                      OFFSET -4.011429 -1.827466 1.640914
                      CHANNELS 3 Zrotation Yrotation Xrotation
                      JOINT RightHandThumb3
                      {
                        OFFSET -2.794935 -4e-06 -3e-06
                        CHANNELS 3 Zrotation Yrotation Xrotation
                        JOINT RightHandThumbEnd
                        {
                          OFFSET -3.183852 4e-06 1e-06
                          CHANNELS 3 Zrotation Yrotation Xrotation
                        }
                      }
                    }
                  }
                  JOINT RightHandIndex1
                  {
                    OFFSET -3.253266 -0.520057 2.282866
                    CHANNELS 3 Zrotation Yrotation Xrotation
                    JOINT RightHandIndex2
                    {
                      OFFSET -6.341917 0.012471 0.178266
                      CHANNELS 3 Zrotation Yrotation Xrotation
                      JOINT RightHandIndex3
                      {
                        OFFSET -3.654871 -8e-06 -0.0
                        CHANNELS 3 Zrotation Yrotation Xrotation
                        JOINT RightHandIndex4
                        {
                          OFFSET -2.327586 0.0 1e-06
                          CHANNELS 3 Zrotation Yrotation Xrotation
                          JOINT RightHandIndexEnd
                          {
                            OFFSET -2.76179 -0.180656 -0.113078
                            CHANNELS 3 Zrotation Yrotation Xrotation
                          }
                        }
                      }
                    }
                  }
                  JOINT RightHandMiddle1
                  {
                    OFFSET -3.168106 0.246593 1.00103
                    CHANNELS 3 Zrotation Yrotation Xrotation
                    JOINT RightHandMiddle2
                    {
                      OFFSET -6.180828 -0.258836 -1.000895
                      CHANNELS 3 Zrotation Yrotation Xrotation
                      JOINT RightHandMiddle3
                      {
                        OFFSET -4.348901 0.0 -0.0
                        CHANNELS 3 Zrotation Yrotation Xrotation
                        JOINT RightHandMiddle4
                        {
                          OFFSET -3.00024 -4e-06 -2e-06
                          CHANNELS 3 Zrotation Yrotation Xrotation
                          JOINT RightHandMiddleEnd
                          {
                            OFFSET -2.30252 -0.29437 -0.031706
                            CHANNELS 3 Zrotation Yrotation Xrotation
                          }
                        }
                      }
                    }
                  }
                  JOINT RightHandRing1
                  {
                    OFFSET -2.88569 -0.067952 -0.308858
                    CHANNELS 3 Zrotation Yrotation Xrotation
                    JOINT RightHandRing2
                    {
                      OFFSET -5.854198 -0.48613 -1.373731
                      CHANNELS 3 Zrotation Yrotation Xrotation
                      JOINT RightHandRing3
                      {
                        OFFSET -4.33881 -4e-06 -0.0
                        CHANNELS 3 Zrotation Yrotation Xrotation
                        JOINT RightHandRing4
                        {
                          OFFSET -2.654903 -4e-06 4e-06
                          CHANNELS 3 Zrotation Yrotation Xrotation
                          JOINT RightHandRingEnd
                          {
                            OFFSET -1.933568 0.077527 -5.2e-05
                            CHANNELS 3 Zrotation Yrotation Xrotation
                          }
                        }
                      }
                    }
                  }
                  JOINT RightHandPinky1
                  {
                    OFFSET -2.866425 -0.342796 -1.584145
                    CHANNELS 3 Zrotation Yrotation Xrotation
                    JOINT RightHandPinky2
                    {
                      OFFSET -5.091371 -1.332055 -1.772385
                      CHANNELS 3 Zrotation Yrotation Xrotation
                      JOINT RightHandPinky3
                      {
                        OFFSET -3.062664 -4e-06 1e-06
                        CHANNELS 3 Zrotation Yrotation Xrotation
                        JOINT RightHandPinky4
                        {
                          OFFSET -1.546529 4e-06 -2e-06
                          CHANNELS 3 Zrotation Yrotation Xrotation
                          JOINT RightHandPinkyEnd
                          {
                            OFFSET -1.945119 -0.157718 0.057211
                            CHANNELS 3 Zrotation Yrotation Xrotation
                          }
                        }
                      }
                    }
                  }
                }
              }
            }
          }
        }
      }
    }
    JOINT LeftLeg
    {
      OFFSET 10.043214 -8.434526 2.595655
      CHANNELS 3 Zrotation Yrotation Xrotation
      JOINT LeftShin
      {
        OFFSET -1e-06 -43.221752 -0.802913
        CHANNELS 3 Zrotation Yrotation Xrotation
        JOINT LeftFoot
        {
          OFFSET 1e-06 -42.155094 -3.481523
          CHANNELS 3 Zrotation Yrotation Xrotation
          JOINT LeftToeBase
          {
            OFFSET 0.0 -5.059472 13.231529
            CHANNELS 3 Zrotation Yrotation Xrotation
            JOINT LeftToeEnd
            {
              OFFSET -0.009607 -1.647619 6.513017
              CHANNELS 3 Zrotation Yrotation Xrotation
            }
          }
        }
      }
    }
    JOINT RightLeg
    {
      OFFSET -10.047278 -8.29526 2.620317
      CHANNELS 3 Zrotation Yrotation Xrotation
      JOINT RightShin
      {
        OFFSET 1e-06 -43.362206 -0.805556
        CHANNELS 3 Zrotation Yrotation Xrotation
        JOINT RightFoot
        {
          OFFSET 2e-06 -42.117393 -3.478398
          CHANNELS 3 Zrotation Yrotation Xrotation
          JOINT RightToeBase
          {
            OFFSET -0.0 -5.079609 13.284196
            CHANNELS 3 Zrotation Yrotation Xrotation
            JOINT RightToeEnd
            {
              OFFSET 0.009532 -1.634378 6.460591
              CHANNELS 3 Zrotation Yrotation Xrotation
            }
          }
        }
      }
    }
  }
}
MOTION
Frames: 4
Frame Time: 0.03333333333333333
0.0 0.0 0.0 0.0 -0.0 0.0 -0.676741 99.597954 0.574235 1.370049 0.159718 -3.821519 -0.298681 0.25572 -2.263854 -0.523273 0.600099 -5.836757 -2.995005 -0.847249 17.718353 -6.462489 7.465689 17.404346 -1.140739 -1.25462 -3.407177 -6.489639 0.461921 5.629517 7.7e-05 -2.3e-05 5e-06 -0.014717 -0.023061 -0.088871 0.785944 -3.816384 -10.721145 -0.823245 3.773663 -10.753239 -17.626139 -7.120265 15.3926 -57.980083 -19.108217 30.886423 -0.475194 -29.375462 0.159376 -16.636499 2.216357 16.362663 -5.882107 9.861284 0.702591 -10.936873 -0.360574 7.156205 0.0 8.774826 -1e-06 -15.783381 18.645092 6.271491 -1.844033 2.498503 -2.507277 -10.163601 4.678946 4.621109 -20.976023 -2e-06 5e-06 -21.226288 2.451697 -3.593999 2e-06 -4e-06 1e-06 -1.362682 2.240797 -0.746323 -21.334913 0.584909 3.008324 -13.821213 -2e-06 4e-06 -23.887169 -0.249077 -0.83948 -60.685547 2.759038 -1.428067 -0.294025 1.679688 0.833256 -14.21821 0.093214 1.300582 -34.212051 -0.287564 0.967172 -20.033215 0.964537 1.212844 1e-06 -0.0 0.0 -3.440389 0.788234 0.501656 -15.928187 -3.167309 2.999709 -6.338826 -1e-06 2e-06 -18.123449 3.648182 -4.90567 -5e-06 -0.0 -2e-06 9.299115 12.180779 14.529183 68.953148 18.869213 32.054363 0.409261 31.640329 0.352013 13.610021 0.703937 12.928062 2.243541 -5.255037 -3.180159 14.282896 -0.826594 6.952507 -3e-06 -12.690603 2e-06 15.590221 -17.779072 3.008388 1.665666 -1.955922 -2.8783 4.7278 -4.170589 4.993926 11.020529 4e-06 2e-06 12.109056 -3.735716 -2.866782 1e-06 0.0 -0.0 1.291985 -1.928549 -1.498089 14.800132 0.567468 3.865611 14.242575 -1.341735 -6.660659 19.631973 0.143925 -0.648241 50.394077 -0.882677 -6.270981 0.353029 -1.511151 -0.031939 20.222797 3.684309 2.316634 18.787279 4e-06 3e-06 10.751631 -0.479868 1.397907 -1e-06 0.0 -0.0 3.273808 0.305947 -0.580112 21.48682 11.830377 2.266137 8.16293 0.0 0.0 18.39909 -3.798985 -4.940574 4e-06 -1e-06 -2e-06 4.302993 0.982651 4.076124 0.060909 -0.26171 4.006621 -7.028643 -2.417111 -4.421515 1.662999 -1.970837 -1.372513 0.0 0.0 2e-06 -8.011555 -1.026418 2.973924 0.012752 0.465933 7.912928 8.064056 7.98536 -6.805241 -1.436416 0.883026 -2.06299 -0.0 0.0 -1e-06 
0.0 0.0 0.0 0.0 -0.0 0.0 -0.686118 99.648354 0.570859 1.378905 0.132705 -3.83776 -0.355472 0.21798 -2.273866 -0.511006 0.597208 -5.863839 -2.978534 -0.869032 17.710224 -6.272054 7.338787 17.237082 -1.162437 -1.163471 -3.373088 -6.502691 0.473931 5.656002 7.8e-05 -2.3e-05 5e-06 -0.024471 0.003912 -0.084846 0.776674 -3.783804 -10.699577 -0.83359 3.794734 -10.728352 -17.658922 -7.23754 15.427132 -57.925285 -19.107065 30.617369 -0.641508 -29.33931 0.211851 -16.941175 2.408591 16.407499 -5.882108 9.861288 0.70259 -10.936875 -0.360575 7.156208 1e-06 8.774826 -2e-06 -15.817946 18.653931 6.322129 -1.844033 2.498504 -2.507279 -10.163601 4.678944 4.621109 -20.976027 -3e-06 2e-06 -21.22629 2.451697 -3.594001 1e-06 -5e-06 0.0 -1.362682 2.240799 -0.746323 -21.334919 0.58491 3.008322 -13.821216 -2e-06 3e-06 -23.887178 -0.24908 -0.839484 -60.874432 2.739604 -1.322603 -0.294025 1.679688 0.833257 -14.218212 0.093215 1.300581 -34.212063 -0.287566 0.96717 -20.033218 0.964536 1.212843 1e-06 -0.0 -0.0 -3.440389 0.788235 0.501656 -15.928189 -3.167309 2.999708 -6.338828 -2e-06 1e-06 -18.123453 3.648183 -4.905674 -5e-06 -0.0 -2e-06 9.40476 12.253215 14.532285 68.921646 18.574823 30.739393 0.311423 32.577068 0.377532 13.50868 0.897574 11.816043 2.243543 -5.255039 -3.180161 14.2829 -0.826594 6.952505 -4e-06 -12.69061 2e-06 15.635197 -17.70438 2.956886 1.665667 -1.955922 -2.878299 4.7278 -4.170588 4.993926 11.020534 4e-06 -1e-06 12.109059 -3.735714 -2.866786 1e-06 0.0 0.0 1.291986 -1.928551 -1.49809 14.800139 0.567469 3.865608 14.242582 -1.341735 -6.660661 19.631983 0.143928 -0.648245 50.205162 -0.835993 -6.35168 0.353029 -1.511153 -0.031939 20.222803 3.684313 2.31663 18.787287 7e-06 -3e-06 10.751636 -0.479867 1.397906 -1e-06 -0.0 0.0 3.273808 0.305947 -0.580111 21.486828 11.830384 2.266133 8.16293 0.0 -1e-06 18.399092 -3.798985 -4.940578 3e-06 -0.0 -1e-06 4.322048 1.079609 4.530986 0.031804 -0.262118 3.143866 -6.949183 -2.433773 -3.934705 1.659602 -1.983007 -1.509129 0.0 0.0 2e-06 -8.033253 -1.124855 3.378034 0.000196 0.453493 7.09259 8.171352 8.056198 -6.402007 -1.432742 0.86982 -2.152 -0.0 0.0 -1e-06 
0.0 0.0 0.0 0.0 -0.0 0.0 -0.675267 99.663834 0.546043 1.375836 0.114713 -3.871966 -0.391061 0.192715 -2.285181 -0.521114 0.574585 -5.884451 -2.985835 -0.902374 17.68701 -6.0568 7.212721 17.050829 -1.132189 -1.014403 -3.348912 -6.5164 0.535458 5.735263 7.7e-05 -2.3e-05 5e-06 -0.021875 0.003194 -0.078799 0.777035 -3.77763 -10.678612 -0.828685 3.786798 -10.701158 -17.710682 -7.292361 15.445864 -57.818447 -19.090862 30.370607 -0.796603 -29.285164 0.262751 -17.227364 2.652507 16.248993 -5.882109 9.861289 0.702589 -10.936876 -0.360576 7.156204 0.0 8.774829 -2e-06 -15.865285 18.679529 6.383639 -1.844033 2.498506 -2.507279 -10.163604 4.678944 4.621107 -20.97603 -2e-06 0.0 -21.226292 2.451696 -3.594003 1e-06 -6e-06 1e-06 -1.362682 2.2408 -0.746324 -21.334921 0.584909 3.00832 -13.821218 -2e-06 2e-06 -23.887178 -0.249082 -0.839485 -61.025986 2.716384 -1.250647 -0.294024 1.679689 0.833256 -14.218212 0.093215 1.300577 -34.212063 -0.287569 0.967167 -20.033218 0.964534 1.212843 1e-06 0.0 0.0 -3.440389 0.788233 0.501655 -15.928189 -3.167311 2.999705 -6.338829 -2e-06 1e-06 -18.123457 3.648183 -4.905674 -5e-06 -0.0 -2e-06 9.539396 12.310689 14.50355 68.749023 18.196251 28.803276 0.071844 33.841457 0.294362 13.279016 1.000537 10.291175 2.243544 -5.255039 -3.180159 14.2829 -0.826596 6.952504 -3e-06 -12.69061 1e-06 15.701555 -17.668921 2.889313 1.665667 -1.955922 -2.8783 4.727801 -4.170591 4.993926 11.020535 4e-06 -2e-06 12.10906 -3.735717 -2.866785 1e-06 -0.0 -1e-06 1.291986 -1.92855 -1.498091 14.800139 0.567467 3.865608 14.242581 -1.341737 -6.660661 19.631981 0.143925 -0.648246 50.030613 -0.794693 -6.430932 0.35303 -1.511151 -0.03194 20.222805 3.684312 2.316631 18.787289 6e-06 -1e-06 10.751636 -0.479868 1.397908 -1e-06 1e-06 -0.0 3.27381 0.305948 -0.58011 21.48683 11.830379 2.266131 8.162933 0.0 -2e-06 18.399099 -3.798985 -4.940579 4e-06 0.0 -1e-06 4.3514 1.196514 4.664217 0.012255 -0.238843 2.962236 -6.942393 -2.512811 -3.795963 1.655755 -1.993452 -1.523043 -0.0 -0.0 2e-06 -8.046272 -1.193034 3.530046 -0.009224 0.455358 6.810402 8.236094 8.149651 -6.235739 -1.426894 0.865245 -2.143225 -0.0 0.0 -1e-06 
0.0 0.0 0.0 0.0 -0.0 0.0 -0.67324 99.650726 0.532889 1.377082 0.063458 -3.916587 -0.419816 0.178624 -2.285061 -0.540396 0.555069 -5.877295 -3.01558 -0.95333 17.615696 -5.844887 7.096335 16.88088 -1.086218 -0.865493 -3.335729 -6.549694 0.660292 5.900143 7.7e-05 -2.3e-05 4e-06 -0.01799 -0.00105 -0.073294 0.774607 -3.773377 -10.655099 -0.818498 3.774087 -10.670629 -17.758299 -7.279618 15.452299 -57.740051 -19.042637 30.14422 -0.897444 -29.226458 0.297336 -17.395317 2.845466 15.886456 -5.882106 9.861286 0.702591 -10.936873 -0.360576 7.156208 0.0 8.774828 -1e-06 -15.922446 18.712223 6.423097 -1.844032 2.498506 -2.507278 -10.163599 4.678945 4.621109 -20.976023 -2e-06 4e-06 -21.226286 2.451698 -3.593999 1e-06 -5e-06 0.0 -1.362681 2.240798 -0.746324 -21.334915 0.584908 3.008326 -13.821213 -1e-06 4e-06 -23.887171 -0.249079 -0.839479 -61.117477 2.698066 -1.2161 -0.294024 1.679688 0.833256 -14.218209 0.093216 1.300581 -34.212051 -0.287566 0.967174 -20.033218 0.964537 1.212845 0.0 -0.0 -0.0 -3.440389 0.788232 0.501655 -15.928187 -3.16731 2.999709 -6.338827 -2e-06 2e-06 -18.123444 3.648182 -4.905669 -5e-06 -0.0 -2e-06 9.689166 12.344922 14.428613 68.375992 17.743135 25.979988 -0.262372 35.444481 0.123209 12.686491 0.878636 8.52724 2.243539 -5.255033 -3.180154 14.282876 -0.826593 6.952492 -3e-06 -12.690593 -0.0 15.769251 -17.662544 2.815698 1.665665 -1.95592 -2.878295 4.727793 -4.170583 4.993919 11.020515 4e-06 -1e-06 12.10904 -3.735711 -2.866782 1e-06 0.0 -0.0 1.291985 -1.928548 -1.498087 14.800115 0.567469 3.865601 14.242559 -1.341734 -6.660653 19.63195 0.143929 -0.648247 49.848534 -0.776263 -6.489406 0.353027 -1.51115 -0.031942 20.222771 3.684307 2.316625 18.787254 6e-06 -4e-06 10.751619 -0.479867 1.397902 0.0 -1e-06 -0.0 3.273804 0.305946 -0.58011 21.486795 11.830365 2.266128 8.162919 1e-06 -2e-06 18.399063 -3.79898 -4.940573 4e-06 -1e-06 -2e-06 4.387584 1.39233 4.635626 0.007914 -0.209646 3.132419 -6.979449 -2.663379 -3.87185 1.654539 -2.006423 -1.46936 0.0 -0.0 2e-06 -8.067753 -1.292704 3.440971 -0.008619 0.459149 7.049993 8.295071 8.264526 -6.301147 -1.423292 0.872543 -2.100431 0.0 0.0 -1e-06 
